<svg width="14" height="17" viewBox="0 0 14 17" fill="none" xmlns="http://www.w3.org/2000/svg">
<path d="M11.773 12.0227L7 16.7957L2.227 12.0227C1.28301 11.0787 0.64014 9.87595 0.379696 8.56658C0.119253 7.25722 0.25293 5.90002 0.763824 4.66662C1.27472 3.43323 2.13988 2.37903 3.24991 1.63733C4.35994 0.895634 5.66498 0.499756 7 0.499756C8.33502 0.499756 9.64006 0.895634 10.7501 1.63733C11.8601 2.37903 12.7253 3.43323 13.2362 4.66662C13.7471 5.90002 13.8808 7.25722 13.6203 8.56658C13.3599 9.87595 12.717 11.0787 11.773 12.0227ZM7 10.2497C7.79565 10.2497 8.55871 9.93363 9.12132 9.37102C9.68393 8.80841 10 8.04535 10 7.2497C10 6.45405 9.68393 5.69099 9.12132 5.12838C8.55871 4.56577 7.79565 4.2497 7 4.2497C6.20435 4.2497 5.44129 4.56577 4.87868 5.12838C4.31607 5.69099 4 6.45405 4 7.2497C4 8.04535 4.31607 8.80841 4.87868 9.37102C5.44129 9.93363 6.20435 10.2497 7 10.2497ZM7 8.7497C6.60218 8.7497 6.22065 8.59166 5.93934 8.31036C5.65804 8.02905 5.5 7.64752 5.5 7.2497C5.5 6.85187 5.65804 6.47034 5.93934 6.18904C6.22065 5.90773 6.60218 5.7497 7 5.7497C7.39783 5.7497 7.77936 5.90773 8.06066 6.18904C8.34197 6.47034 8.5 6.85187 8.5 7.2497C8.5 7.64752 8.34197 8.02905 8.06066 8.31036C7.77936 8.59166 7.39783 8.7497 7 8.7497Z" fill="url(#paint0_linear_1073_18)"/>
<defs>
<linearGradient id="paint0_linear_1073_18" x1="7" y1="0.499756" x2="7" y2="16.7957" gradientUnits="userSpaceOnUse">
<stop stop-color="white" stop-opacity="0"/>
<stop offset="1" stop-color="white"/>
</linearGradient>
</defs>
</svg>
