<svg width="16" height="14" viewBox="0 0 16 14" fill="none" xmlns="http://www.w3.org/2000/svg">
<path d="M1.25 0.249756H14.75C14.9489 0.249756 15.1397 0.328773 15.2803 0.469426C15.421 0.610078 15.5 0.800843 15.5 0.999756V12.9998C15.5 13.1987 15.421 13.3894 15.2803 13.5301C15.1397 13.6707 14.9489 13.7498 14.75 13.7498H1.25C1.05109 13.7498 0.860322 13.6707 0.71967 13.5301C0.579018 13.3894 0.5 13.1987 0.5 12.9998V0.999756C0.5 0.800843 0.579018 0.610078 0.71967 0.469426C0.860322 0.328773 1.05109 0.249756 1.25 0.249756ZM8.045 6.76201L3.236 2.67826L2.26475 3.82126L8.05475 8.73751L13.7405 3.81751L12.7595 2.68276L8.04575 6.76201H8.045Z" fill="url(#paint0_linear_1073_96)"/>
<defs>
<linearGradient id="paint0_linear_1073_96" x1="8" y1="0.249756" x2="8" y2="13.7498" gradientUnits="userSpaceOnUse">
<stop stop-color="white" stop-opacity="0"/>
<stop offset="1" stop-color="white"/>
</linearGradient>
</defs>
</svg>
