<svg width="14" height="14" viewBox="0 0 14 14" fill="none" xmlns="http://www.w3.org/2000/svg">
<path d="M13.75 10.3148V12.9668C13.7501 13.1566 13.6781 13.3395 13.5487 13.4784C13.4192 13.6173 13.2419 13.702 13.0525 13.7153C12.7247 13.7378 12.457 13.7498 12.25 13.7498C5.62225 13.7498 0.25 8.37751 0.25 1.74976C0.25 1.54276 0.26125 1.27501 0.2845 0.947256C0.297792 0.757839 0.382436 0.580514 0.521353 0.451062C0.660269 0.321611 0.843117 0.24967 1.033 0.249756H3.685C3.77803 0.249662 3.86777 0.28415 3.9368 0.346521C4.00582 0.408892 4.0492 0.494693 4.0585 0.587256C4.07575 0.759756 4.0915 0.897006 4.1065 1.00126C4.25555 2.04145 4.561 3.05313 5.0125 4.00201C5.08375 4.15201 5.03725 4.33126 4.90225 4.42726L3.28375 5.58376C4.27334 7.8896 6.11091 9.72717 8.41675 10.7168L9.57175 9.10126C9.61896 9.03526 9.68784 8.98792 9.76637 8.96749C9.84491 8.94707 9.92812 8.95486 10.0015 8.98951C10.9503 9.44016 11.9617 9.74484 13.0015 9.89326C13.1058 9.90826 13.243 9.92476 13.414 9.94126C13.5064 9.95073 13.592 9.99418 13.6543 10.0632C13.7165 10.1322 13.7509 10.2218 13.7507 10.3148H13.75Z" fill="url(#paint0_linear_1073_103)"/>
<defs>
<linearGradient id="paint0_linear_1073_103" x1="7.00037" y1="0.249756" x2="7.00037" y2="13.7498" gradientUnits="userSpaceOnUse">
<stop stop-color="white" stop-opacity="0"/>
<stop offset="1" stop-color="white"/>
</linearGradient>
</defs>
</svg>
