<svg width="40" height="31" viewBox="0 0 40 31" fill="none" xmlns="http://www.w3.org/2000/svg">
<path d="M36.07 3.47113C38.3017 5.84146 39.4998 8.49996 39.4998 12.8095C39.4998 20.3928 34.1763 27.1896 26.4348 30.5501L24.5 27.5645C31.7258 23.6558 33.1385 18.5836 33.7018 15.3856C32.5383 15.988 31.0152 16.1981 29.5223 16.0595C25.6137 15.6976 22.5327 12.4888 22.5327 8.49996C22.5327 6.48873 23.3316 4.55988 24.7538 3.13773C26.1759 1.71558 28.1048 0.916626 30.116 0.916626C32.4408 0.916626 34.6638 1.97829 36.07 3.47113ZM14.4033 3.47113C16.635 5.84146 17.8332 8.49996 17.8332 12.8095C17.8332 20.3928 12.5097 27.1896 4.76816 30.5501L2.83333 27.5645C10.0592 23.6558 11.4718 18.5836 12.0352 15.3856C10.8717 15.988 9.3485 16.1981 7.85566 16.0595C3.947 15.6976 0.868164 12.4888 0.868164 8.49996C0.868164 6.48873 1.66712 4.55988 3.08927 3.13773C4.51142 1.71558 6.44027 0.916626 8.4515 0.916626C10.7763 0.916626 12.9993 1.97829 14.4055 3.47113H14.4033Z" fill="#E6E5EF"/>
</svg>
